<svg version="1.2" xmlns="http://www.w3.org/2000/svg" viewBox="0 0 1080 1080" width="1080" height="1080"><style>.a{fill:#f8312f}.b{fill:#cb0b4a}.c{fill:#cc0c49}.d{fill:#dc1843}.e{fill:#e01e43}.f{fill:#db1944}.g{fill:#dc1745}.h{fill:#da1843}.i{fill:#d91842}.j{fill:#dd1a43}.k{fill:#de1a41}.l{fill:#de1b46}.m{fill:#f37366}</style><path fill-rule="evenodd" class="a" d="m858 201.2c-1.8 0.9-3.7 2.7-5.5 2.7-8.7 0-17.3-0.9-26-0.7-11.6 0.3-23.3 0.8-34.8 2-21.1 2.1-41.8 6.6-61.9 13.6-21.3 7.3-41.4 17-60.6 28.9-25.5 15.7-47.9 35-68 56.9-22.3 24.2-40.9 51.2-55.7 80.7-0.9 1.7-2 3.2-4.1 4.5-0.2-1.7-0.4-3.4-0.4-5.1q0-44 0-88c0-2.7 0.5-5.3 0.5-8.4-4.9-5.4-9.5-10.5-14.1-15.5-14.3-15.4-29.4-29.9-47.2-41.4-7.4-4.8-14.2-10.7-21.8-15-9-5.1-18.9-8.6-27.8-13.8-8.7-5.2-18.5-7.4-27.6-11.5 1.5 2.7 1.8 4.5-2.3 4.9-27.3 2.8-53.6 9.8-79.2 19.7-31.7 12.3-61.3 28.5-87.1 50.9-19 16.4-35.1 35.5-47.3 57.6-12 21.8-20.1 45.1-23.6 69.6-3 20.8-3.2 41.7-1 62.7 5 46.2 20.3 88.8 42.3 129.2 17.5 32 39.1 61.4 63.7 88.6 20.9 22.9 44.3 43.2 67.6 63.5 24 20.9 48.1 41.6 72.4 62.2 24.2 20.4 48.4 40.7 73 60.6 34 27.5 68.4 54.6 102.7 81.9 5.3 4.3 10.9 8.2 16.3 12.4 1.2 1 2.2 2.4 3.8 3.8 7.2-4.8 14-9.7 20.5-15.1 9.5-7.8 18.7-15.8 27.8-24 13.8-12.1 27.5-24.3 41-36.8 7.8-7.2 15-15 22.7-22.3 10.2-9.7 20.6-19.3 30.9-29 11.4-10.6 23-20.9 34.2-31.8 10.8-10.4 21.1-21.2 31.7-31.8 10-10.1 20.2-20 30.3-30.1 11.9-11.8 23.9-23.6 35.5-35.6 9.2-9.6 18-19.5 26.8-29.4 3.1-3.5 5.7-7.4 8.4-11.2 4.5-6.2 8.8-12.5 13.3-18.7 3.6-5.1 8-9.7 11-15 7.3-12.7 14-25.6 20.9-38.4 6.4-11.7 13.1-23.1 17.1-35.9 3.1-10.1 8-19.7 11.4-29.7 2.6-7.3 4.8-14.9 6-22.6 1-6.6 2.9-12.8 4.8-19.2 2.4-7.8 3.2-16.2 4.3-24.4 1-7 2.1-14.2 2-21.3-0.3-17.2-1.2-34.4-1.9-51.6 0-0.2 0-0.4 0-0.5q-3.5-15.5-7-31c-0.2-0.5-0.4-0.9-0.6-1.4-1.8-5.4-3.6-10.8-5.4-16.2-1.5-4.8-2.1-10.1-4.6-14.3-6.7-11.5-10.9-24.4-20.2-34.6-6.8-7.5-11.6-16.8-18.4-24.2-8.1-8.8-17-17.1-26.4-24.5-10.2-7.9-21.1-15.2-32.2-21.8-9.6-5.7-20.1-10.1-30.2-15.1zm-81.7 363.6c-15.4 6.2-30.4 9.7-46.5 7.5-15.8-2.2-28-9.9-37.7-22.2-11.1-14.1-15.7-30.9-16.8-48.3-2.6-41.4 9.3-79.3 28.9-115.2 13.2-24.1 29.8-45.7 50.1-64.4 18.9-17.3 40-31.3 65.4-36.6 36.5-7.6 65.3 8.4 76.4 44.7 8.4 27.6 5.8 55.2-1.1 82.8-6.7 26.4-17.9 50.8-32.7 73.6-20.9 32.1-46.8 59.2-81.9 76.3-1.3 0.7-2.7 1.2-4.1 1.8z"/><path class="b" d="m402.6 191.1c1.9 2.7 2.2 4.5-1.9 4.9-27.3 2.8-53.6 9.8-79.2 19.7-31.7 12.3-61.3 28.5-87.1 50.9-19 16.4-35.1 35.5-47.3 57.6-12 21.8-20.1 45.1-23.6 69.6-3 20.8-3.2 41.7-1 62.7 5 46.2 20.3 88.8 42.3 129.2 17.5 32 39.1 61.4 63.7 88.6 20.9 22.9 44.3 43.2 67.6 63.5 24 20.9 48.1 41.6 72.4 62.2 24.2 20.4 48.4 40.7 73 60.6 34 27.5 68.4 54.6 102.7 81.9 5.3 4.3 10.9 8.2 16.3 12.4 1.2 1 2.2 2.4 3.4 3.9-2.2 2.4-4.5 4.4-6.9 6.3-3.9 3.2-8.4 6-11.7 9.7-5.3 5.8-12.1 9.5-18.9 12.6-4.5 2.2-10.2 1.8-16.3 2.6-5.4 0-9.8 0-14.2 0-5.9 0.2-11.7 0.4-17-3.8-5.4-4.6-10.8-8.3-15.9-12.5q-16.2-13-32.1-26.4c-6.6-5.5-12.9-11.4-19.5-16.9-1.5-1.2-3.6-1.7-5.5-2.8-1.3-1.8-2.3-3.6-3.8-4.9-7.3-6.6-14.7-13.1-22.3-20-1.5-1.6-2.7-2.9-4-4.1-10.8-9.6-21.8-19.1-32.4-28.8-11.6-10.5-22.8-21.4-34.3-32-2.7-2.6-6-4.6-9.3-7.1-9.1-8.9-17.9-17.6-27-26-2.2-2-5.3-3.1-7.9-4.6 0 0 0.1 0 0-0.3-6.4-7.1-12.5-14-18.9-20.6-3.7-3.7-8-6.8-12-10.2 0 0 0 0-0.1-0.3-0.7-0.7-1.3-1.2-2.2-1.8-8.1-7.8-15.9-15.3-23.8-23.3-1.2-1.7-2.1-3.3-3.4-4.5-7.2-7.3-14.4-14.6-21.7-21.8-3.5-3.3-7.2-6.2-10.9-9.6-8-8.9-15.8-17.6-23.8-26.1-2.2-2.4-4.7-4.5-7.3-6.9-5.7-7.4-11.3-14.6-16.8-22.1-0.8-1.6-1.3-3-2.2-4.2-4.1-5.8-8.6-11.3-12.4-17.3-6.1-9.6-11.6-19.6-17.6-29.4-1.1-1.8-3.1-3.2-4.7-5.1-1.4-3.5-2.8-6.5-4.2-9.9-0.8-0.7-1.4-1.2-2-1.7 0 0 0.1 0 0-0.3-0.7-1.4-1.3-2.5-2-3.7 0 0 0 0 0.1-0.3-0.1-1.1 0-1.8-0.2-2.4-5.2-13-10.5-26-15.9-39-0.3-0.7-1.9-0.8-3-1.2-1.3-2.4-3.1-4.7-3.8-7.3-1.7-5.9-2.6-12-4.2-17.9-1.7-6-4.1-11.8-5.7-17.9-0.7-2.5-0.2-5.3-0.2-8.8-0.7-7.2-1.3-13.5-2.3-19.7-0.1-0.9-1.6-1.7-2.5-2.5-4-7-1.6-14.6-2.2-22.8 0.4-12.3 0.7-23.7 0.9-35 0-1.4-0.6-2.9-1-4.3 0-3.1-0.1-6.3 0.1-9.4 0.6-7.3 0.7-14.6 2.2-21.7 1.4-7.3 4.3-14.2 6.5-21.3 1.2-3.8 2.2-7.7 4-11.7 2.8-4.1 5-7.9 6.7-12 6.8-15.9 14.6-31.3 25.8-44.6 1.2-1.5 1.9-3.5 3.1-5.4 0.7-1 1.2-1.9 2.1-2.8 2.4-2.4 4.5-4.7 6.6-7 0 0 0 0 0.3-0.1 1.8-2.4 3.3-4.6 5-6.9 0.2 0 0.7 0 1-0.1 0.7-0.7 1.2-1.3 1.7-1.9 0 0 0 0 0.3-0.1 0.7-0.7 1.2-1.3 1.7-1.9 0 0 0 0 0.3-0.1 0.7-0.7 1.2-1.3 1.7-1.9 0 0 0 0 0.3-0.1 2.3-1.4 4.5-2.4 6.1-4 10.5-10.6 22.7-18.7 35.4-26.4 1.7-1 2.8-3 4.2-4.6 0 0 0 0.1 0.1 0 0.4-0.3 0.6-0.5 0.9-0.7 1.1-0.7 2.2-1.3 3.9-2 1.1 0 1.7 0.3 2.1 0.2 8.1-3.8 16.2-7.7 24.2-11.7 0.6-0.2 0.5-1.8 0.7-2.8 4.4-2 8.7-4.2 13.2-5.9 5.7-2.1 11.6-4 17.5-5.7 3.4-1 7.1-1.5 10.6-2.3 5.2-1.3 10.4-2.6 15.6-3.8 0.5-0.2 1-0.2 1.4-0.2 11.8-0.7 23.5-1.3 35.2-2.1 2.1-0.1 4.1-1.1 6.2-1.6 1.1-0.3 2.5-0.7 3.4-0.3 8.5 4.1 17.5 0.8 26.2 2 6.3 0.9 12.5 2.6 18.8 3.8 3.6 0.8 7.1 1.4 10.6 2.1 5.9 1.3 11.7 2.7 18 4.2z"/><path class="c" d="m857.6 201.1c-1.4 1-3.3 2.8-5.1 2.8-8.7 0-17.3-0.9-26-0.7-11.6 0.3-23.3 0.8-34.8 2-21.1 2.1-41.8 6.6-61.9 13.6-21.3 7.3-41.4 17-60.6 28.9-25.5 15.7-47.9 35-68 56.9-22.3 24.2-40.9 51.2-55.7 80.7-0.9 1.7-2 3.2-4.1 4.5-0.2-1.7-0.4-3.4-0.4-5.1q0-44 0-88c0-2.7 0.5-5.3 0.8-8.4 7.3-11.3 16.8-20.2 26.1-29.2 7.1-6.9 14.1-14.2 22.2-19.9 9.7-6.8 18.4-15.1 29.7-19.9 7.5-3.2 13.9-9.1 21.3-12.8 7.3-3.8 15.3-6.4 23-9.5 4.1-1.7 8.1-3.5 12.3-4.9 3.6-1.2 7.3-2.1 11-3.1 3.9-1.2 7.9-2.4 11.9-3.6 0.3-0.1 0.6-0.3 0.9-0.4 5-0.7 10.1-1.6 15.2-2 11-0.8 22.5 0.4 32.9-2.6 6.9-2 11.9 1.8 18 0.8 6.3-1 13.1-1 19.4-0.1 8.9 1.3 17.5 3.8 26.3 5.8 6.2 1.4 12.5 2.4 18.6 4.1 6.5 1.9 12.8 4.2 19.1 6.5 2.6 0.9 5 2.3 7.9 3.6z"/><path class="d" d="m340 831c3.1 2.2 6.4 4.2 9.1 6.8 11.5 10.6 22.7 21.5 34.3 32 10.6 9.7 21.6 19.2 32.4 28.8 1.3 1.2 2.5 2.5 3.7 4.2-0.6 0.7-1 1-1.5 1.3q-5.4-4.5-10.6-9c-8-6.7-16.6-12.9-23.8-20.4-12.2-12.9-26.4-23.5-39.1-35.9-1.5-1.5-2.8-3.4-4.4-5.7-0.1-1.2-0.1-1.6-0.1-2.1z"/><path class="e" d="m446 927.9c1.8 0.8 3.9 1.3 5.4 2.5 6.6 5.5 12.9 11.4 19.5 16.9q15.9 13.4 32.1 26.4c5.1 4.2 10.5 7.9 15.9 12.1-5.3 0.9-8.7-2.8-12.3-5.6-9.1-7.2-17.7-15.1-26.8-22.5-7.8-6.4-15.9-12.4-23.7-18.8-3.9-3.1-7.4-6.7-10.9-10.5 0.5-0.4 0.7-0.4 0.8-0.5z"/><path class="f" d="m127 276c-0.9 1.7-1.6 3.7-2.8 5.2-11.2 13.3-19 28.7-25.8 44.6-1.7 4.1-3.9 7.9-6.3 12 0.2-8.9 5-16.5 8.6-24.5 3.3-7.5 7.8-14.6 12.1-21.6 2.4-4 5.6-7.5 8.4-11.2 1.1-1.4 2.1-2.8 3.8-4.4 1.1-0.1 1.5-0.1 2-0.1z"/><path class="g" d="m127.1 596.9c1.6 1.6 3.6 3 4.7 4.8 6 9.8 11.5 19.8 17.6 29.4 3.8 6 8.3 11.5 12.4 17.3 0.9 1.2 1.4 2.6 1.8 4.2-0.8 0.4-1.2 0.4-1.7 0.4-3.3-5-6.6-10.2-10.1-15.2-3.1-4.4-6.8-8.3-9.7-12.8-4-6.1-7.4-12.5-11.1-18.8-1.4-2.4-2.7-4.9-4-8 0-0.9 0.1-1.1 0.1-1.3z"/><path class="h" d="m193.6 217.9c-1 1.6-2.1 3.6-3.8 4.6-12.7 7.7-24.9 15.8-35.4 26.4-1.6 1.6-3.8 2.6-6.1 3.7-0.3-0.8-0.3-1.2-0.3-1.7 8.7-9 18.1-17.3 28.7-24 5.3-3.4 11-6 16.9-9z"/><path class="i" d="m212 708c3.6 3.1 7.3 6 10.8 9.3 7.3 7.2 14.5 14.5 21.7 21.8 1.3 1.2 2.2 2.8 3.1 4.6-0.3 0.3-0.5 0.3-0.7 0.3-8.3-7.7-16.7-15.3-24.9-23.2-3.6-3.4-6.7-7.3-10-11.6 0-0.8 0-1 0-1.2z"/><path class="j" d="m339.8 830.7c0.2 0.8 0.2 1.2 0.2 2-4.5-3.5-9.1-7.4-13.4-11.4-7.3-6.8-14.4-13.7-21.7-20.9 2.6 1.2 5.7 2.3 7.9 4.3 9.1 8.4 17.9 17.1 27 26z"/><path class="d" d="m100 538.5c1 0 2.6 0.1 2.9 0.8 5.4 13 10.7 26 15.9 39 0.2 0.6 0.1 1.3 0.2 2.4-1.6-1.4-3.6-2.9-4.6-5-2.4-5.1-4.2-10.5-6.4-15.7-1.8-4.1-3.8-8.1-5.4-12.2-1.2-2.9-1.8-5.9-2.6-9.3z"/><path class="k" d="m274 769c4 3.4 8.3 6.5 12 10.2 6.4 6.6 12.5 13.5 18.9 20.6-0.9-0.1-2.2-0.2-2.9-0.9-9.4-8.9-18.7-18-28-27.7 0-1.2 0-1.7 0-2.2z"/><path class="g" d="m211.9 707.7c0.1 0.5 0.1 0.7 0.1 1.1-1.1-0.2-2.4-0.5-3.2-1.3-7.4-7.7-14.9-15.4-22.2-23.2-2.1-2.2-3.7-4.9-5.6-8.1 0-0.9 0-1.1 0-1.3 2.4 2.2 4.9 4.3 7.1 6.7 8 8.5 15.8 17.2 23.8 26.1z"/><path class="e" d="m78.5 402c0.8 1.3 1.4 2.8 1.4 4.2-0.2 11.3-0.5 22.7-0.9 34.5-0.7-0.6-1.9-1.6-1.9-2.6-0.2-11.6-0.1-23.1 0-34.6 0-0.5 0.6-1 1.4-1.5z"/><path class="k" d="m445.9 927.6c0 0.4-0.2 0.4-0.7 0.4-9.3-7.7-18.2-15.4-27.2-23.5 0.5-0.7 0.9-1 1.7-1.4 7.7 6.5 15.1 13 22.4 19.6 1.5 1.3 2.5 3.1 3.8 4.9z"/><path class="e" d="m274 769c0 0.5 0 1-0.1 1.8-5.6-4.6-11.4-9.4-16.8-14.6-3.6-3.5-6.8-7.6-10.2-11.8 0.2-0.4 0.4-0.4 0.9-0.4 8 7.6 15.8 15.1 24 23.1 1 0.9 1.6 1.4 2.2 1.9q0 0 0 0z"/><path class="i" d="m225.5 201c0.2 0.9 0.3 2.5-0.3 2.7-8 4-16.1 7.9-24.2 11.7-0.4 0.1-1-0.2-1.8-0.3 8.4-4.8 17.2-9.5 26.3-14.1z"/><path class="l" d="m180.8 674.7c0.2 0.4 0.2 0.6 0.2 1.1-1.8-1-3.9-1.9-5.3-3.6-4.4-5.3-8.6-10.8-12.9-16.3-0.4-0.6-0.5-1.4-0.9-2.5 0.5-0.4 0.9-0.4 1.8-0.4 5.8 7.1 11.4 14.3 17.1 21.7z"/><path class="e" d="m81.1 464.5c1 0.3 2.5 1.1 2.6 2 1 6.2 1.6 12.5 2.3 19.2-1-0.5-2.6-1.3-2.7-2.4-1-6.1-1.5-12.3-2.2-18.8z"/><path class="e" d="m536 990.5c4.3-0.5 8.7-0.5 13.6-0.5 0.4 0.5 0.2 1.4 0.1 1.4-4.5-0.1-9.1-0.3-13.7-0.9z"/><path class="h" d="m136 266c-2.1 2.3-4.2 4.6-6.7 6.6-0.3-0.7-0.3-1.2-0.3-1.7 1.1-1.6 2.2-3.2 4-4.8 1.5-0.1 2.2-0.1 3-0.1z"/><path class="e" d="m127.1 596.6c0 0.5-0.1 0.7-0.1 1.2-1.4-1.6-2.8-3.4-4-5.3-0.8-1.5-1.3-3.2-1.6-5.1 0.8-0.4 1.2-0.4 1.6-0.4 1.3 3.1 2.7 6.1 4.1 9.6z"/><path class="l" d="m147.6 250.9c0.4 0.5 0.4 0.9 0.4 1.8 0 0.3 0 0.3-0.3 0.4-0.7 0.7-1.2 1.3-1.7 1.9 0 0 0 0-0.3 0.1-0.7 0.7-1.2 1.3-1.7 1.9 0 0 0 0-0.3 0.1-0.7 0.7-1.2 1.3-1.7 1.9 0 0-0.5 0-1 0-1.1 0.1-1.5 0.1-2 0 0 0-0.1-0.1-0.1-0.1 2.8-2.6 5.6-5.3 8.7-8z"/><path class="l" d="m128.6 270.9c0.4 0.5 0.4 1 0.4 1.8-0.5 1.2-1 2.1-1.7 3.1-0.8 0.2-1.2 0.2-2 0.2 0.7-1.7 1.8-3.3 3.3-5.1z"/><path class="l" d="m136 266c-0.8 0-1.5 0-2.7-0.1q1.1-2.5 3.3-4.9c0.4 0 0.5 0.1 0.4 0.4-0.3 1.8-0.7 3.2-1 4.6q0 0 0 0z"/><path class="d" d="m118.9 581.4q1 1.1 2 3.3-0.9-1.1-2-3.3z"/><path class="d" d="m122.9 586.7c-0.3 0.3-0.7 0.3-1.4 0.3-0.4-0.4-0.5-0.9-0.6-1.6 0.6 0.1 1.2 0.6 2 1.3z"/><path class="l" d="m136.9 260.9c0.4-0.6 0.9-1.3 1.7-2 0.3 0 0.4 0.1 0.3 0.4-0.7 0.8-1.3 1.3-1.8 1.8 0 0-0.1-0.1-0.2-0.2z"/><path class="h" d="m194.7 217.2c0 0.2-0.2 0.4-0.6 0.7 0-0.2 0.2-0.5 0.6-0.7z"/><path class="m" d="m776 565c-15.1 6-30.1 9.5-46.2 7.3-15.8-2.2-28-9.9-37.7-22.2-11.1-14.1-15.7-30.9-16.8-48.3-2.6-41.4 9.3-79.3 28.9-115.2 13.2-24.1 29.8-45.7 50.1-64.4 18.9-17.3 40-31.3 65.4-36.6 36.5-7.6 65.3 8.4 76.4 44.7 8.4 27.6 5.8 55.2-1.1 82.8-6.7 26.4-17.9 50.8-32.7 73.6-20.9 32.1-46.8 59.2-81.9 76.3-1.3 0.7-2.7 1.2-4.4 2z"/><path class="h" d="m137 261.4c0.6-0.8 1.2-1.3 1.9-2.1 0.6-0.2 1-0.2 1.8-0.3-1.1 2.3-2.6 4.5-4.4 6.9 0-1.3 0.4-2.7 0.7-4.5z"/><path class="k" d="m273.9 768.7q-0.7-0.3-1.8-1.4 0.7 0.3 1.8 1.4z"/><path class="h" d="m142.3 258.9q0.3-0.7 1.4-1.8-0.3 0.7-1.4 1.8z"/><path class="h" d="m144.3 256.9q0.3-0.7 1.4-1.8-0.3 0.7-1.4 1.8z"/><path class="h" d="m146.3 254.9q0.3-0.7 1.4-1.8-0.3 0.7-1.4 1.8z"/></svg>